# AST/ASF file generated using VICON BodyLanguage
# -----------------------------------------------
:version 1.10
:name VICON
:units
  mass 1.0
  length 0.45
  angle deg
:documentation
   .ast/.asf automatically generated from VICON data using
   VICON BodyBuilder and BodyLanguage model FoxedUp or BRILLIANT.MOD
:root
   order TX TY TZ RX RY RZ
   axis XYZ
   position 0 0 0  
   orientation 0 0 0 
:bonedata
  begin
     id 1 
     name lhipjoint
     direction 0.653368 -0.678499 0.335782 
     length 2.51848 
     axis 0 0 0  XYZ
  end
  begin
     id 2 
     name lfemur
     direction 0.34202 -0.939693 0  
     length 6.57749  
     axis 0 0 20  XYZ
    dof rx ry rz
    limits (-160.0 20.0)
           (-70.0 70.0)
           (-60.0 70.0)
  end
  begin
     id 3 
     name ltibia
     direction 0.34202 -0.939693 0   
     length 7.94618   
     axis 0 0 20   XYZ
    dof rx
    limits (-10.0 170.0)
  end
  begin
     id 4 
     name lfoot
     direction 0.0811271 -0.222895 0.971461   
     length 2.31339   
     axis -90 7.62852e-016 20   XYZ
    dof rx rz
    limits (-45.0 90.0)
           (-70.0 20.0)
  end
  begin
     id 5 
     name ltoes
     direction 1.53568e-011 -4.21885e-011 1   
     length 1.15935   
     axis -90 7.62852e-016 20   XYZ
    dof rx
    limits (-90.0 20.0)
  end
  begin
     id 6 
     name rhipjoint
     direction -0.640058 -0.688614 0.340788   
     length 2.48149  
     axis 0 0 0  XYZ 
  end
  begin
     id 7 
     name rfemur
     direction -0.34202 -0.939693 0   
     length 6.57875   
     axis 0 0 -20   XYZ
    dof rx ry rz
    limits (-160.0 20.0)
           (-70.0 70.0)
           (-70.0 60.0)
  end
  begin
     id 8 
     name rtibia
     direction -0.34202 -0.939693 0   
     length 7.977   
     axis 0 0 -20   XYZ
    dof rx
    limits (-10.0 170.0)
 end
 begin
     id 9 
     name rfoot
     direction -0.0979793 -0.269196 0.958089   
     length 2.19857  
     axis -90 -7.62852e-016 -20   XYZ
    dof rx rz
    limits (-45.0 90.0)
           (-20.0 70.0)
  end
  begin
     id 10 
     name rtoes
     direction -1.53556e-011 -4.21868e-011 1   
     length 1.09838   
     axis -90 -7.62852e-016 -20   XYZ
    dof rx
    limits (-90.0 20.0)
  end
  begin
     id 11 
     name lowerback
     direction 0.0149039 0.998517 -0.0523597   
     length 2.10809   
     axis 0 0 0   XYZ
    dof rx ry rz
    limits (-20.0 45.0)
           (-30.0 30.0)
           (-30.0 30.0)
  end
  begin
     id 12 
     name upperback
     direction -0.00882659 0.999418 -0.0329624   
     length 2.1102   
     axis 0 0 0   XYZ
    dof rx ry rz
    limits (-20.0 45.0)
           (-30.0 30.0)
           (-30.0 30.0)
  end
  begin
     id 13 
     name thorax
     direction -0.0165585 0.999826 -0.0085833   
     length 2.11039   
     axis 0 0 0   XYZ
    dof rx ry rz
    limits (-20.0 45.0)
           (-30.0 30.0)
           (-30.0 30.0)
  end
  begin
     id 14 
     name lowerneck
     direction -0.0130877 0.999911 0.00260353   
     length 1.73253   
     axis 0 0 0   XYZ
    dof rx ry rz
    limits (-20.0 45.0)
           (-30.0 30.0)
           (-30.0 30.0)
  end
  begin
     id 15 
     name upperneck
     direction -0.0348454 0.928205 -0.370435   
     length 1.66692   
     axis 0 0 0   XYZ
    dof rx ry rz
    limits (-20.0 45.0)
           (-30.0 30.0)
           (-30.0 30.0)
  end
  begin
     id 16
     name head
     direction -0.00807754 0.992494 -0.122026  
     length 1.72765  
     axis 0 0 0   XYZ
    dof rx ry rz
    limits (-20.0 45.0)
           (-30.0 30.0)
           (-30.0 30.0)
  end
  begin
     id 17 
     name lclavicle
     direction 0.987582 0.144023 0.0627671  
     length 3.49235  
     axis 0 0 0   XYZ
    dof ry rz
    limits (-20.0 10.0)
           (0.0 20.0)
  end
  begin
     id 18 
     name lhumerus
     direction 1 -4.48958e-011 -1.45183e-018   
     length 5.41917   
     axis 180 -30 -90   XYZ
    dof rx ry rz
    limits (-60.0 90.0)
           (-90.0 90.0)
           (-90.0 90.0)
  end
  begin
     id 19
     name lradius
     direction 1 -4.48999e-011 5.75106e-027   
     length 2.44373   
     axis 180 -30 -90   XYZ
    dof rx
    limits (-10.0 170.0)
  end
  begin
     id 20
     name lwrist
     direction 1 -4.48987e-011 1.53461e-026   
     length 1.22186   
     axis -1.09697e-014 90 90   XYZ
    dof ry
    limits (-180.0 0.0)
 end
  begin
     id 21 
     name lhand
     direction 1 -4.48881e-011 3.06923e-026   
     length 0.727502   
     axis -1.95843e-014 90 90   XYZ
    dof rx rz
    limits (-90.0 90.0)
           (-45.0 45.0)
  end
  begin
     id 22 
     name lfingers
     direction 1 -4.48907e-011 6.13845e-026   
     length 0.586531   
     axis -3.91686e-014 90 90   XYZ
    dof rx
    limits (0.0 90.0)
  end
  begin
     id 23
     name lthumb
     direction 0.707107 -6.3487e-011 0.707107   
     length 0.842145   
     axis -90 45 2.85299e-015   XYZ
    dof rx rz
    limits (-45.0 45.0)
           (-45.0 45.0)
  end
  begin
     id 24 
     name rclavicle
     direction -0.980998 0.169556 0.0943023   
     length 3.29272  
     axis 0 0 0   XYZ 
    dof ry rz
    limits (-10.0 20.0)
           (-20.0 0.0)
  end
  begin
     id 25 
     name rhumerus
     direction -1 -1.83355e-005 2.45537e-005  
     length 5.58976   
     axis 180 30 90   XYZ
    dof rx ry rz
    limits (-90.0 60.0)
           (-90.0 90.0)
           (-90.0 90.0)
  end
  begin
     id 26 
     name rradius
     direction -1 -4.48967e-011 5.97228e-027   
     length 2.4806   
     axis 180 30 90   XYZ
    dof rx
    limits (-10.0 170.0)
  end
  begin
     id 27 
     name rwrist
     direction -1 -4.48963e-011 1.53461e-026   
     length 1.2403   
     axis -1.09697e-014 -90 -90   XYZ
    dof ry
    limits (-180.0 0.0)
  end
  begin
     id 28
     name rhand
     direction -1 -4.48881e-011 3.06923e-026   
     length 0.816009   
     axis -1.95843e-014 -90 -90   XYZ
    dof rx rz
    limits (-90.0 90.0)
           (-45.0 45.0)
  end
  begin
     id 29
     name rfingers
     direction -1 -4.49018e-011 6.13845e-026   
     length 0.657887   
     axis -3.91686e-014 -90 -90   XYZ
    dof rx
    limits (0.0 90.0)
  end
  begin
     id 30
     name rthumb
     direction -0.707107 -6.34872e-011 0.707107   
     length 0.944599   
     axis -90 -45 -2.85299e-015   XYZ
    dof rx rz
    limits (-45.0 45.0)
           (-45.0 45.0)
  end
:hierarchy
  begin
    root lhipjoint rhipjoint lowerback
    lhipjoint lfemur
    lfemur ltibia
    ltibia lfoot
    lfoot ltoes
    rhipjoint rfemur
    rfemur rtibia
    rtibia rfoot
    rfoot rtoes
    lowerback upperback
    upperback thorax
    thorax lowerneck lclavicle rclavicle
    lowerneck upperneck
    upperneck head
    lclavicle lhumerus
    lhumerus lradius
    lradius lwrist
    lwrist lhand lthumb
    lhand lfingers
    rclavicle rhumerus
    rhumerus rradius
    rradius rwrist
    rwrist rhand rthumb
    rhand rfingers
  end

#!OML:ASF F:\VICON\USERDATA\INSTALL\rory3\rory3.ASF
:FULLY-SPECIFIED
:DEGREES
121
root -0.425571 16.0983 30.9171 -157.181 3.43028 -174.735
lowerback -6.42835 3.92846 5.15661
upperback -4.68629 5.36174 -0.0922204
thorax -0.796445 2.73667 -2.65382
lowerneck -16.2005 0.282664 0.531074
upperneck 32.9249 -3.15807 2.46491
head 13.9659 -1.80062 0.165431
rclavicle -3.73342e-015 -1.09332e-014
rhumerus -55.8719 29.6025 -99.0106
rradius 81.0129
rwrist 8.28149
rhand 16.9747 -2.3598
rfingers 7.12502
rthumb 41.707 -27.0472
lclavicle -3.73342e-015 -1.09332e-014
lhumerus -54.0955 -21.6742 86.0841
lradius 83.0401
lwrist -9.96884
lhand 5.43142 16.7495
lfingers 7.12502
lthumb 30.7814 44.1924
rfemur -26.6544 3.74761 32.8974
rtibia 42.57
rfoot -51.0821 -31.1332
rtoes 22.7133
lfemur -56.918 13.6783 -21.1301
ltibia 60.8515
lfoot -26.409 6.14564
ltoes -12.6732
122
root -0.454703 16.0798 30.8324 -157.487 3.92464 -174.859
lowerback -6.02742 4.00176 4.87368
upperback -4.60326 5.46723 -0.203916
thorax -0.934268 2.78094 -2.63208
lowerneck -15.6521 0.22345 0.326987
upperneck 32.1967 -3.18965 2.85912
head 13.538 -1.77799 0.365609
rclavicle -7.22085e-014 -1.41137e-014
rhumerus -55.8892 29.8293 -98.7267
rradius 83.7933
rwrist 7.5233
rhand 15.5681 -1.86874
rfingers 7.12502
rthumb 40.3861 -26.9771
lclavicle -7.22085e-014 -1.41137e-014
lhumerus -54.6231 -22.9334 86.589
lradius 85.6612
lwrist -9.80143
lhand 4.53772 16.6319
lfingers 7.12502
lthumb 29.9289 44.232
rfemur -26.3362 3.10017 32.5354
rtibia 43.1185
rfoot -50.2649 -30.8024
rtoes 20.9776
lfemur -55.6906 12.8673 -20.8821
ltibia 60.5266
lfoot -27.6373 6.92738
ltoes -13.1254
123
root -0.481582 16.0599 30.746 -157.769 4.34614 -174.927
lowerback -5.63149 4.06152 4.56383
upperback -4.63379 5.57269 -0.247298
thorax -1.19803 2.82901 -2.53256
lowerneck -15.087 0.171668 0.18628
upperneck 31.6851 -3.26315 3.17329
head 13.2064 -1.79117 0.509129
rclavicle 6.35443e-014 1.98412e-014
rhumerus -56.1374 30.0428 -98.5259
rradius 86.3612
rwrist 6.53563
rhand 13.5214 -0.979579
rfingers 7.12502
rthumb 38.4581 -26.6527
lclavicle 6.35443e-014 1.98412e-014
lhumerus -55.3443 -24.2061 87.2799
lradius 88.1377
lwrist -9.63895
lhand 3.79436 16.2225
lfingers 7.12502
lthumb 29.2194 43.9483
rfemur -26.1041 2.67772 32.2463
rtibia 43.8332
rfoot -49.3391 -30.6455
rtoes 18.9784
lfemur -54.45 11.9208 -20.5345
ltibia 60.1562
lfoot -29.0228 7.18737
ltoes -11.4487
124
root -0.509598 16.0402 30.6624 -157.987 4.60418 -175.28
lowerback -5.25409 3.8968 3.95031
upperback -4.64278 5.38268 -0.261918
thorax -1.47937 2.73626 -2.25156
lowerneck -15.3317 0.316151 0.441634
upperneck 31.7976 -3.06017 2.95846
head 13.2956 -1.69498 0.410487
rclavicle -5.67445e-014 -9.07033e-015
rhumerus -56.3244 30.6765 -98.4817
rradius 88.7056
rwrist 5.73273
rhand 10.7197 0.139161
rfingers 7.12502
rthumb 35.8086 -26.2241
lclavicle -5.67445e-014 -9.07033e-015
lhumerus -55.9785 -25.0377 87.9542
lradius 90.2761
lwrist -10.4099
lhand 2.2895 15.285
lfingers 7.12502
lthumb 27.7814 43.2518
rfemur -26.0753 2.14491 31.7048
rtibia 44.7241
rfoot -48.5622 -30.7159
rtoes 17.3854
lfemur -53.3472 10.8717 -20.582
ltibia 59.766
lfoot -30.2186 7.72196
ltoes -11.4433
125
root -0.53911 16.0292 30.5783 -157.94 4.57721 -175.482
lowerback -5.56219 3.65986 3.52132
upperback -4.31254 5.03353 -0.152031
thorax -1.03163 2.57279 -1.88221
lowerneck -16.0088 0.431952 0.614488
upperneck 31.6728 -2.7316 2.64311
head 13.3742 -1.53001 0.311866
rclavicle -7.81286e-014 -9.10682e-015
rhumerus -55.65 31.5711 -97.9757
rradius 90.7753
rwrist 4.57859
rhand 8.44982 1.29174
rfingers 7.12502
rthumb 33.6546 -25.568
lclavicle -7.81286e-014 -9.10682e-015
lhumerus -55.802 -25.7512 88.3517
lradius 92.1393
lwrist -11.3066
lhand 0.828954 14.4124
lfingers 7.12502
lthumb 26.3841 42.5967
rfemur -26.4396 1.39403 31.4
rtibia 45.7802
rfoot -47.937 -30.605
rtoes 15.7359
lfemur -52.7418 9.85478 -20.5689
ltibia 59.4782
lfoot -30.8344 8.67358
ltoes -12.2824
126
root -0.572294 16.0277 30.4955 -158.186 4.8502 -175.612
lowerback -5.0327 3.59915 3.25769
upperback -4.35679 4.97445 -0.196101
thorax -1.39057 2.53717 -1.82575
lowerneck -15.8476 0.474458 0.637613
upperneck 31.5083 -2.65044 2.63496
head 13.2674 -1.49414 0.319563
rclavicle -3.89354e-014 -6.52262e-015
rhumerus -55.6769 31.9651 -98.0297
rradius 92.5008
rwrist 3.38946
rhand 5.96899 2.81496
rfingers 7.12502
rthumb 31.2938 -24.5301
lclavicle -3.89354e-014 -6.52262e-015
lhumerus -56.0911 -26.7073 88.7983
lradius 94.0348
lwrist -11.6887
lhand 0.599101 13.7101
lfingers 7.12502
lthumb 26.1641 41.9272
rfemur -26.5888 0.640841 31.0273
rtibia 47.0164
rfoot -47.3339 -30.8363
rtoes 14.4785
lfemur -51.912 9.17286 -20.6032
ltibia 59.2579
lfoot -31.3022 9.72234
ltoes -12.4493
127
root -0.603182 16.0223 30.4108 -158.32 5.19022 -175.719
lowerback -4.49586 3.55265 2.99761
upperback -4.5928 4.95467 -0.236644
thorax -1.95121 2.52525 -1.775
lowerneck -15.5617 0.567236 0.775823
upperneck 31.5049 -2.5313 2.48373
head 13.1985 -1.46139 0.254575
rclavicle 6.57045e-014 1.64246e-014
rhumerus -55.9846 32.2575 -98.2768
rradius 94.1101
rwrist 2.0741
rhand 2.82354 4.5827
rfingers 7.12502
rthumb 28.2919 -23.3006
lclavicle 6.57045e-014 1.64246e-014
lhumerus -56.5624 -27.8093 89.5447
lradius 95.504
lwrist -12.0605
lhand -1.98397 12.0996
lfingers 7.12502
lthumb 23.6888 40.6599
rfemur -27.0302 -0.0316398 30.6856
rtibia 48.4521
rfoot -46.3232 -30.1402
rtoes 13.0378
lfemur -51.2587 8.56388 -20.6498
ltibia 59.0734
lfoot -31.9563 10.4454
ltoes -11.8371
128
root -0.630172 16.023 30.3245 -158.482 5.54818 -176.114
lowerback -4.20236 3.47875 2.42932
upperback -4.53455 4.85971 -0.340448
thorax -2.09297 2.48195 -1.58913
lowerneck -16.5936 0.741683 1.13707
upperneck 32.1485 -2.3215 2.1058
head 13.6881 -1.3609 0.0672652
rclavicle -2.14936e-015 -9.74045e-015
rhumerus -55.7375 32.6535 -98.2739
rradius 95.4546
rwrist 0.80905
rhand -0.361197 6.46219
rfingers 7.12502
rthumb 25.2444 -21.8878
lclavicle -2.14936e-015 -9.74045e-015
lhumerus -56.6047 -29.1363 90.4085
lradius 96.5359
lwrist -11.9215
lhand -1.40851 12.6143
lfingers 7.12502
lthumb 24.2406 41.102
rfemur -27.6924 -1.10234 30.0615
rtibia 50.1528
rfoot -44.5499 -30.5423
rtoes 10.2121
lfemur -50.5413 7.95862 -21.0345
ltibia 58.8108
lfoot -32.5131 11.1976
ltoes -11.9962
129
root -0.659227 16.0305 30.2394 -158.645 5.80232 -176.626
lowerback -3.87136 3.36655 1.80981
upperback -4.42432 4.70553 -0.48531
thorax -2.20376 2.40881 -1.41754
lowerneck -16.7602 0.727266 0.864902
upperneck 31.8222 -2.27133 2.40999
head 13.5892 -1.30809 0.248791
rclavicle 2.41151e-014 1.59028e-015
rhumerus -55.2537 33.1445 -98.2819
rradius 96.4916
rwrist -0.695266
rhand -2.74514 8.19206
rfingers 7.12502
rthumb 22.9585 -20.4609
lclavicle 2.41151e-014 1.59028e-015
lhumerus -56.563 -30.5059 91.3102
lradius 97.3767
lwrist -11.9248
lhand -2.64408 12.0369
lfingers 7.12502
lthumb 23.0555 40.6777
rfemur -28.5754 -2.50435 29.3249
rtibia 52.1144
rfoot -42.2144 -30.444
rtoes 9.62279
lfemur -49.7202 7.35043 -21.5625
ltibia 58.4288
lfoot -33.1051 11.3918
ltoes -11.0079
130
root -0.686149 16.0382 30.1527 -158.667 6.14264 -176.958
lowerback -3.61961 3.30544 1.26759
upperback -4.38366 4.62529 -0.563607
thorax -2.33883 2.37589 -1.21534
lowerneck -17.2005 0.720646 0.795764
upperneck 31.8012 -2.22005 2.41798
head 13.6759 -1.27246 0.273771
rclavicle -6.64686e-015 -4.67144e-015
rhumerus -54.8808 33.6427 -98.4726
rradius 97.2538
rwrist -2.22884
rhand -4.88361 10.0523
rfingers 7.12502
rthumb 20.9052 -18.8412
lclavicle -6.64686e-015 -4.67144e-015
lhumerus -56.5038 -31.666 92.102
lradius 98.1902
lwrist -12.4522
lhand -4.38297 10.9695
lfingers 7.12502
lthumb 21.3862 39.8093
rfemur -29.8283 -3.40296 28.8026
rtibia 54.2798
rfoot -39.5534 -31.7808
rtoes 6.695
lfemur -49.0096 7.02758 -21.9911
ltibia 58.0255
lfoot -33.678 11.4598
ltoes -10.2813
131
root -0.710043 16.0507 30.0613 -158.616 6.55141 -177.136
lowerback -3.62873 3.302 0.987324
upperback -4.48168 4.63133 -0.685619
thorax -2.44623 2.38669 -1.18896
lowerneck -16.9822 0.783277 0.878382
upperneck 31.7926 -2.14402 2.32811
head 13.6215 -1.2532 0.235413
rclavicle 1.18277e-014 2.68359e-015
rhumerus -55.0322 34.0031 -99.1087
rradius 97.954
rwrist -3.8733
rhand -7.29841 12.0284
rfingers 7.12502
rthumb 18.5838 -17.1039
lclavicle 1.18277e-014 2.68359e-015
lhumerus -56.7315 -32.8345 92.9481
lradius 98.9153
lwrist -13.3926
lhand -7.4483 9.87768
lfingers 7.12502
lthumb 18.4396 39.0237
rfemur -31.452 -3.88071 28.5146
rtibia 56.6963
rfoot -35.3876 -34.015
rtoes 2.45994
lfemur -48.3858 6.90718 -22.3107
ltibia 57.6181
lfoot -34.3191 11.6173
ltoes -9.95906
132
root -0.734422 16.0535 29.9734 -158.542 6.90892 -177.353
lowerback -3.63102 3.26241 0.618845
upperback -4.52136 4.58618 -0.755695
thorax -2.50919 2.37402 -1.05957
lowerneck -17.2969 0.880801 0.882746
upperneck 32.0781 -2.00092 2.20769
head 13.8108 -1.20839 0.20693
rclavicle 1.59276e-014 1.98785e-016
rhumerus -54.9779 34.3341 -99.5631
rradius 98.4585
rwrist -5.52222
rhand -9.86641 14.0991
rfingers 7.12502
rthumb 16.1123 -15.2511
lclavicle 1.59276e-014 1.98785e-016
lhumerus -56.6772 -33.9627 93.8601
lradius 99.1572
lwrist -14.0134
lhand -7.85796 9.67577
lfingers 7.12502
lthumb 18.0455 38.8586
rfemur -33.3033 -4.19885 28.288
rtibia 59.1564
rfoot -27.9627 -38.7624
rtoes -0.0828901
lfemur -47.8586 6.73619 -22.6702
ltibia 57.2581
lfoot -35.0053 11.643
ltoes -9.33547
133
root -0.761483 16.0557 29.8918 -158.484 7.15747 -177.34
lowerback -3.63788 3.2622 0.577048
upperback -4.50674 4.58435 -0.763176
thorax -2.49277 2.37347 -1.043
lowerneck -17.4504 0.921687 0.715011
upperneck 32.0487 -1.86986 2.23392
head 13.8305 -1.15979 0.269716
rclavicle -8.00605e-014 -1.63997e-014
rhumerus -54.7215 34.5682 -99.8615
rradius 98.727
rwrist -7.04074
rhand -12.725 16.6073
rfingers 7.12502
rthumb 13.3583 -12.9444
lclavicle -8.00605e-014 -1.63997e-014
lhumerus -56.5099 -35.2989 94.9146
lradius 98.9922
lwrist -13.9658
lhand -9.29001 8.6042
lfingers 7.12502
lthumb 16.6673 37.9086
rfemur -34.409 -3.56856 27.8855
rtibia 61.8655
rfoot -35.6685 -30.2195
rtoes 24.9788
lfemur -47.3146 6.50057 -22.7484
ltibia 56.9244
lfoot -35.4368 12.0365
ltoes -9.65273
134
root -0.790333 16.0641 29.8046 -158.439 7.19522 -177.294
lowerback -3.49671 3.20765 0.646794
upperback -4.55537 4.51331 -0.744903
thorax -2.61977 2.33583 -1.07577
lowerneck -17.39 0.952919 0.728327
upperneck 31.8654 -1.71898 2.04956
head 13.7323 -1.10966 0.222129
rclavicle -4.84786e-014 4.07509e-015
rhumerus -54.6596 34.7224 -100.305
rradius 98.9368
rwrist -8.31909
rhand -13.6026 18.5775
rfingers 7.12502
rthumb 12.5123 -11.0279
lclavicle -4.84786e-014 4.07509e-015
lhumerus -56.4769 -36.7094 96.0337
lradius 98.7907
lwrist -13.9424
lhand -10.2627 7.58016
lfingers 7.12502
lthumb 15.7307 36.9608
rfemur -36.3279 -3.41501 27.9245
rtibia 64.4364
rfoot -33.177 -31.0156
rtoes 31.935
lfemur -46.7311 6.19511 -22.745
ltibia 56.553
lfoot -35.7459 12.3589
ltoes -9.97053
135
root -0.820765 16.0639 29.714 -158.382 7.25621 -177.333
lowerback -3.30779 3.16819 0.675638
upperback -4.64139 4.46455 -0.802008
thorax -2.80904 2.30962 -1.16725
lowerneck -17.7872 0.99452 0.937642
upperneck 32.1673 -1.64213 1.71059
head 13.9458 -1.09599 0.0600129
rclavicle 7.25564e-015 -7.05686e-015
rhumerus -54.4964 34.7492 -100.76
rradius 98.977
rwrist -9.75249
rhand -14.6465 20.8897
rfingers 7.12502
rthumb 11.5057 -8.77455
lclavicle 7.25564e-015 -7.05686e-015
lhumerus -56.5823 -38.1107 97.1747
lradius 98.4933
lwrist -13.9328
lhand -11.8337 6.46673
lfingers 7.12502
lthumb 14.2173 35.9601
rfemur -38.1899 -3.36151 27.8453
rtibia 66.7896
rfoot -30.7749 -31.6091
rtoes 37.4031
lfemur -46.1291 5.89191 -22.8464
ltibia 56.1455
lfoot -36.3593 12.3101
ltoes -9.03857
